<svg xmlns="http://www.w3.org/2000/svg" width="51.938" height="50.957" viewBox="0 0 51.938 50.957">
  <g id="Group_637" data-name="Group 637" transform="translate(-168.462 -300)">
    <text id="B20" transform="translate(179 330)" fill="#c2c5e5" font-size="14" font-family="OpenSans-SemiBold, Open Sans" font-weight="600"><tspan x="0" y="0">B20</tspan></text>
    <path id="Path_339" data-name="Path 339" d="M52.725,9.709A4.839,4.839,0,0,0,47.993,5.9H23.409a4.838,4.838,0,0,0-4.732,3.751H8.867A3.9,3.9,0,0,0,5,13.518V49.124a3.818,3.818,0,0,0,3.867,3.809h9.753a4.78,4.78,0,0,0,4.732,3.924H47.993A4.817,4.817,0,0,0,52.61,53.51a4.765,4.765,0,0,0,4.328-4.732V14.383A4.783,4.783,0,0,0,52.725,9.709ZM23.409,7.574H48.051a3.118,3.118,0,0,1,3,2.193,4.81,4.81,0,0,0-3.636,3.924H23.409a3.059,3.059,0,1,1,0-6.117ZM18.677,51.259H8.867a2.181,2.181,0,0,1-2.193-2.135V13.518a2.143,2.143,0,0,1,2.193-2.135h9.753a4.782,4.782,0,0,0,4.732,4.04H47.243V47.451H23.409A4.681,4.681,0,0,0,18.677,51.259Zm29.316,3.982H23.409a3.059,3.059,0,1,1,0-6.117H47.358a4.735,4.735,0,0,0,3.578,4.27A3.317,3.317,0,0,1,47.993,55.241Zm7.271-6.463a3.117,3.117,0,0,1-6.233,0V14.383a3.117,3.117,0,0,1,6.233,0Z" transform="translate(163.462 294.1)" fill="#c2c5e5"/>
  </g>
</svg>
