<svg xmlns="http://www.w3.org/2000/svg" width="42.517" height="23.06" viewBox="0 0 42.517 23.06"><defs><style>.a{fill:#fff;}</style></defs><path class="a" d="M27.22,39.5H17.655a.655.655,0,1,0,0,1.31H27.22a.655.655,0,0,0,0-1.31Z" transform="translate(-10.514 -27.97)"/><path class="a" d="M46.669,21.9H9a1.9,1.9,0,0,0-1.9,1.9V40.112a1.9,1.9,0,0,0,1.9,1.9h1.965A3.6,3.6,0,0,0,14.5,44.96a3.639,3.639,0,0,0,3.538-2.948H33.763A3.6,3.6,0,0,0,37.3,44.96a3.639,3.639,0,0,0,3.538-2.948h3.145a1.9,1.9,0,0,0,1.9-1.9v-11.6A6.764,6.764,0,0,0,43.2,23.145h3.6a1.483,1.483,0,0,1,1.507,1.507v3.865a.655.655,0,1,0,1.31,0v-3.8A2.91,2.91,0,0,0,46.669,21.9ZM28.391,30.22V23.21H33.7v7.01Zm-13.364,0V23.21h5.306v7.01Zm6.682-7.01h5.306v7.01H21.709ZM9,23.21h4.717v7.01H8.41V23.8A.587.587,0,0,1,9,23.21Zm5.5,20.44a2.227,2.227,0,0,1,0-4.455,2.251,2.251,0,0,1,2.227,2.227A2.132,2.132,0,0,1,14.5,43.65Zm22.667,0a2.227,2.227,0,0,1,0-4.455A2.251,2.251,0,0,1,39.4,41.422,2.132,2.132,0,0,1,37.17,43.65Zm6.682-2.882H40.707a3.6,3.6,0,0,0-3.538-2.948,3.639,3.639,0,0,0-3.538,2.948H18.04A3.6,3.6,0,0,0,14.5,37.819a3.639,3.639,0,0,0-3.538,2.948H9a.587.587,0,0,1-.59-.59V34.74h2.555a.655.655,0,1,0,0-1.31H8.41V31.661H44.441V33.43H40.9a.619.619,0,0,0-.655.655,3.872,3.872,0,0,0,3.865,3.865h.393v2.227A.769.769,0,0,1,43.852,40.767Zm.59-4.258h-.393a2.6,2.6,0,0,1-2.424-1.834h2.751v1.834Zm0-7.927v1.7H35.008V23.21h4.127A5.34,5.34,0,0,1,44.441,28.582Z" transform="translate(-7.1 -21.9)"/></svg>