<svg id="BUS_ICON" data-name="BUS ICON" xmlns="http://www.w3.org/2000/svg" width="68.197" height="36.988" viewBox="0 0 68.197 36.988">
  <path id="Path_27" data-name="Path 27" d="M33.393,39.5H18.051a1.051,1.051,0,1,0,0,2.1H33.393a1.051,1.051,0,1,0,0-2.1Z" transform="translate(-6.597 -21.006)" fill="#2f2d98"/>
  <path id="Path_28" data-name="Path 28" d="M70.568,21.9H10.147A3.05,3.05,0,0,0,7.1,24.947V51.112a3.05,3.05,0,0,0,3.047,3.047H13.3a5.768,5.768,0,0,0,5.674,4.729,5.837,5.837,0,0,0,5.674-4.729H49.868a5.768,5.768,0,0,0,5.674,4.729,5.837,5.837,0,0,0,5.674-4.729H66.26a3.05,3.05,0,0,0,3.047-3.047v-18.6A10.849,10.849,0,0,0,65,23.9h5.779A2.378,2.378,0,0,1,73.2,26.313v6.2a1.051,1.051,0,1,0,2.1,0V26.418A4.667,4.667,0,0,0,70.568,21.9ZM41.251,35.245V24h8.512V35.245Zm-21.436,0V24h8.511V35.245ZM30.533,24h8.511V35.245H30.533ZM10.147,24h7.566V35.245H9.2v-10.3A.942.942,0,0,1,10.147,24Zm8.827,32.785a3.573,3.573,0,0,1,0-7.145,3.61,3.61,0,0,1,3.573,3.573A3.419,3.419,0,0,1,18.974,56.787Zm36.358,0a3.573,3.573,0,0,1,0-7.145A3.61,3.61,0,0,1,58.9,53.214,3.419,3.419,0,0,1,55.332,56.787ZM66.05,52.163H61.006a5.768,5.768,0,0,0-5.674-4.729,5.837,5.837,0,0,0-5.674,4.729H24.648a5.768,5.768,0,0,0-5.674-4.729A5.837,5.837,0,0,0,13.3,52.163H10.147a.942.942,0,0,1-.946-.946V42.5h4.1a1.051,1.051,0,1,0,0-2.1H9.2V37.557H67v2.837H61.321a.993.993,0,0,0-1.051,1.051,6.211,6.211,0,0,0,6.2,6.2h.63v3.573A1.233,1.233,0,0,1,66.05,52.163ZM67,45.333h-.63a4.165,4.165,0,0,1-3.888-2.942h4.413v2.942Zm0-12.715V35.35H51.864V24h6.62A8.566,8.566,0,0,1,67,32.618Z" transform="translate(-7.1 -21.9)" fill="#2f2d98"/>
</svg>
