<svg xmlns="http://www.w3.org/2000/svg" width="28.026" height="23.821" viewBox="0 0 28.026 23.821">
  <path id="Path_33" data-name="Path 33" d="M45.708,21.679a.582.582,0,0,0-.786.459L42.891,28.95H21.469l-2.031-6.813a.644.644,0,1,0-1.245.328L20.355,29.8V44.673a.8.8,0,0,0,.786.786H43.153a.8.8,0,0,0,.786-.786V29.933l2.227-7.4A.642.642,0,0,0,45.708,21.679ZM31.82,34.912a.394.394,0,0,0-.262.066l-1.376.852V30.261h3.276v5.568l-1.31-.852A.591.591,0,0,0,31.82,34.912Zm10.875,9.3H21.665V30.261h7.861v5.765a.551.551,0,0,0,.262.459.723.723,0,0,0,.524,0l1.507-.917,1.507.917a.557.557,0,0,0,.524,0,.551.551,0,0,0,.262-.459V30.261h8.516V44.215Z" transform="translate(-18.181 -21.638)" fill="#fff"/>
</svg>
