<svg xmlns="http://www.w3.org/2000/svg" width="23.519" height="23.519" viewBox="0 0 23.519 23.519">
  <path id="Path_51" data-name="Path 51" d="M41.584,45.419a1.831,1.831,0,0,0,1.834-1.834V39.261a1.831,1.831,0,0,0-1.834-1.834,13.444,13.444,0,0,1-4.258-.655,1.878,1.878,0,0,0-1.9.459L33.657,39a18.812,18.812,0,0,1-7.337-7.337l1.769-1.769a1.7,1.7,0,0,0,.459-1.9,13.164,13.164,0,0,1-.655-4.258A1.831,1.831,0,0,0,26.058,21.9H21.734A1.831,1.831,0,0,0,19.9,23.734,21.668,21.668,0,0,0,41.584,45.419M21.734,23.079h4.324a.587.587,0,0,1,.59.59,15.262,15.262,0,0,0,.721,4.586.521.521,0,0,1-.131.59l-2.424,2.424a20.593,20.593,0,0,0,9.041,9.106l2.424-2.424a.6.6,0,0,1,.655-.131,13.827,13.827,0,0,0,4.651.721.587.587,0,0,1,.59.59v4.455a.587.587,0,0,1-.59.59,20.466,20.466,0,0,1-20.44-20.44A.542.542,0,0,1,21.734,23.079Z" transform="translate(-19.9 -21.9)" fill="#fff"/>
</svg>
