<svg xmlns="http://www.w3.org/2000/svg" width="76.4" height="74.957" viewBox="0 0 76.4 74.957">
  <g id="Group_639" data-name="Group 639" transform="translate(-866.686 -541)">
    <text id="B12" transform="translate(887.686 585)" fill="#2f2d98" font-size="17" font-family="OpenSans-SemiBold, Open Sans" font-weight="600"><tspan x="0" y="0">B12</tspan></text>
    <path id="Path_323" data-name="Path 323" d="M75.2,11.5a7.118,7.118,0,0,0-6.961-5.6H32.08a7.116,7.116,0,0,0-6.961,5.518H10.688A5.743,5.743,0,0,0,5,17.105V69.482a5.616,5.616,0,0,0,5.688,5.6H25.034a7.031,7.031,0,0,0,6.961,5.772H68.242a7.086,7.086,0,0,0,6.791-4.924A7.009,7.009,0,0,0,81.4,68.973V18.379A7.035,7.035,0,0,0,75.2,11.5ZM32.08,8.362H68.327a4.586,4.586,0,0,1,4.414,3.226,7.076,7.076,0,0,0-5.348,5.772H32.08a4.5,4.5,0,1,1,0-9ZM25.119,72.623H10.688a3.207,3.207,0,0,1-3.226-3.141V17.105a3.153,3.153,0,0,1,3.226-3.141H25.034a7.035,7.035,0,0,0,6.961,5.942H67.139V67.02H32.08A6.886,6.886,0,0,0,25.119,72.623ZM68.242,78.48H32.08a4.5,4.5,0,1,1,0-9H67.309a6.965,6.965,0,0,0,5.263,6.282A4.879,4.879,0,0,1,68.242,78.48Zm10.7-9.508a4.585,4.585,0,0,1-9.168,0V18.379a4.585,4.585,0,0,1,9.168,0Z" transform="translate(861.686 535.1)" fill="#2f2d98"/>
    <rect id="Rectangle_1999" data-name="Rectangle 1999" width="12" height="61" rx="6" transform="translate(930 548)" fill="#2f2d98"/>
  </g>
</svg>
